<svg xmlns="http://www.w3.org/2000/svg"  viewBox="0 0 50 50" width="50px" height="50px"><path d="M 28.1875 0 C 30.9375 6.363281 18.328125 10.292969 17.15625 15.59375 C 16.082031 20.464844 24.648438 26.125 24.65625 26.125 C 23.355469 24.109375 22.398438 22.449219 21.09375 19.3125 C 18.886719 14.007813 34.535156 9.207031 28.1875 0 Z M 36.5625 8.8125 C 36.5625 8.8125 25.5 9.523438 24.9375 16.59375 C 24.6875 19.742188 27.847656 21.398438 27.9375 23.6875 C 28.011719 25.558594 26.0625 27.125 26.0625 27.125 C 26.0625 27.125 29.609375 26.449219 30.71875 23.59375 C 31.949219 20.425781 28.320313 18.285156 28.6875 15.75 C 29.039063 13.324219 36.5625 8.8125 36.5625 8.8125 Z M 19.1875 25.15625 C 19.1875 25.15625 9.0625 25.011719 9.0625 27.875 C 9.0625 30.867188 22.316406 31.089844 31.78125 29.25 C 31.78125 29.25 34.296875 27.519531 34.96875 26.875 C 28.765625 28.140625 14.625 28.28125 14.625 27.1875 C 14.625 26.179688 19.1875 25.15625 19.1875 25.15625 Z M 38.65625 25.15625 C 37.664063 25.234375 36.59375 25.617188 35.625 26.3125 C 37.90625 25.820313 39.84375 27.234375 39.84375 28.84375 C 39.84375 32.46875 34.59375 35.875 34.59375 35.875 C 34.59375 35.875 42.71875 34.953125 42.71875 29 C 42.71875 26.296875 40.839844 24.984375 38.65625 25.15625 Z M 16.75 30.71875 C 15.195313 30.71875 12.875 31.9375 12.875 33.09375 C 12.875 35.417969 24.5625 37.207031 33.21875 33.8125 L 30.21875 31.96875 C 24.351563 33.847656 13.546875 33.234375 16.75 30.71875 Z M 18.1875 35.9375 C 16.058594 35.9375 14.65625 37.222656 14.65625 38.1875 C 14.65625 41.171875 27.371094 41.472656 32.40625 38.4375 L 29.21875 36.40625 C 25.457031 37.996094 16.015625 38.238281 18.1875 35.9375 Z M 11.09375 38.625 C 7.625 38.554688 5.375 40.113281 5.375 41.40625 C 5.375 48.28125 40.875 47.964844 40.875 40.9375 C 40.875 39.769531 39.527344 39.203125 39.03125 38.9375 C 41.933594 45.65625 9.96875 45.121094 9.96875 41.15625 C 9.96875 40.253906 12.320313 39.390625 14.5 39.8125 L 12.65625 38.75 C 12.113281 38.667969 11.589844 38.636719 11.09375 38.625 Z M 44.625 43.25 C 39.226563 48.367188 25.546875 50.222656 11.78125 47.0625 C 25.542969 52.695313 44.558594 49.535156 44.625 43.25 Z"/>
<defs>
    <style>
      .cls-1 {
        fill: url(#linear-gradient);
      }

      .cls-2 {
        fill: url(#linear-gradient-2);
      }
    </style>
    <linearGradient id="linear-gradient" x1="79.54" y1="-16322.12" x2="391.53" y2="-16010.12" gradientTransform="matrix(1, 0, 0, -1, 0, -15870)" gradientUnits="userSpaceOnUse">
      <stop offset="0" stop-color="#f58b1f"/>
      <stop offset="0.49" stop-color="#ed6723"/>
      <stop offset="1" stop-color="#ee3e30"/>
    </linearGradient>
    <linearGradient id="linear-gradient-2" x1="133.27" y1="-16429.45" x2="133.27" y2="-16153.01" gradientTransform="matrix(0.71, 0.71, 0.71, -0.71, 11542.98, -11199.21)" gradientUnits="userSpaceOnUse">
      <stop offset="0" stop-color="#c41e51"/>
      <stop offset="0.21" stop-color="#b71a4b"/>
      <stop offset="0.59" stop-color="#940f3a"/>
      <stop offset="1" stop-color="#680225"/>
    </linearGradient>
  </defs>
  <title>Artboard 1</title>
  <g id="_Group_" data-name="&lt;Group&gt;">
    <g id="_Group_2" data-name="&lt;Group&gt;">
      <path id="_Path_" data-name="&lt;Path&gt;" class="cls-1" d="M365.18,274.21a47.8,47.8,0,0,1-38-55.94L332,193.49c12.72-66.45-29-132.77-95.31-146.29A122.63,122.63,0,0,0,91.38,145.8C79.47,212.4,125.7,275.67,192.15,288.38l24.78,4.74a47.8,47.8,0,0,1,38,55.93c-10.14,53,23.22,106,76.17,116.41A97.14,97.14,0,0,0,445.25,388C455.15,334.93,418.17,284.35,365.18,274.21Z"/>
      <circle id="_Path_2" data-name="&lt;Path&gt;" class="cls-2" cx="133.28" cy="399.17" r="68.13" transform="translate(-243.22 211.15) rotate(-45)"/>
    </g>
  </g>
  </svg>